<mxfile host="app.diagrams.net" modified="2023-02-14T13:57:50.182Z" agent="5.0 (Windows NT 10.0; Win64; x64) AppleWebKit/537.36 (KHTML, like Gecko) Chrome/110.0.0.0 Safari/537.36" etag="JGhHz7Mc-seK3opsOy9A" version="20.8.20" type="github">
  <diagram name="Page-1" id="a7904f86-f2b4-8e86-fa97-74104820619b">
    <mxGraphModel dx="1434" dy="756" grid="1" gridSize="10" guides="1" tooltips="1" connect="1" arrows="1" fold="1" page="1" pageScale="1" pageWidth="1100" pageHeight="850" background="none" math="0" shadow="0">
      <root>
        <mxCell id="0" />
        <mxCell id="1" parent="0" />
        <mxCell id="8qXv4J2yHKkorjMLx8Wc-1" value="Etudiant" style="swimlane;fontStyle=0;childLayout=stackLayout;horizontal=1;startSize=30;horizontalStack=0;resizeParent=1;resizeParentMax=0;resizeLast=0;collapsible=1;marginBottom=0;whiteSpace=wrap;html=1;" vertex="1" parent="1">
          <mxGeometry x="270" y="30" width="140" height="220" as="geometry" />
        </mxCell>
        <mxCell id="8qXv4J2yHKkorjMLx8Wc-2" value="id : int&lt;br&gt;nom : string&lt;br&gt;prenom : string&lt;br&gt;mail : string&lt;br&gt;promotion : Promotion&lt;br&gt;taf1 : TAF&lt;br&gt;taf2 : TAF&lt;br&gt;stageA2 : stage&lt;br&gt;stageA3 : stage" style="text;strokeColor=none;fillColor=none;align=left;verticalAlign=middle;spacingLeft=4;spacingRight=4;overflow=hidden;points=[[0,0.5],[1,0.5]];portConstraint=eastwest;rotatable=0;whiteSpace=wrap;html=1;" vertex="1" parent="8qXv4J2yHKkorjMLx8Wc-1">
          <mxGeometry y="30" width="140" height="190" as="geometry" />
        </mxCell>
        <mxCell id="8qXv4J2yHKkorjMLx8Wc-5" value="Promotion" style="swimlane;fontStyle=0;childLayout=stackLayout;horizontal=1;startSize=30;horizontalStack=0;resizeParent=1;resizeParentMax=0;resizeLast=0;collapsible=1;marginBottom=0;whiteSpace=wrap;html=1;" vertex="1" parent="1">
          <mxGeometry x="40" y="70" width="140" height="60" as="geometry" />
        </mxCell>
        <mxCell id="8qXv4J2yHKkorjMLx8Wc-6" value="annee : int" style="text;strokeColor=none;fillColor=none;align=left;verticalAlign=middle;spacingLeft=4;spacingRight=4;overflow=hidden;points=[[0,0.5],[1,0.5]];portConstraint=eastwest;rotatable=0;whiteSpace=wrap;html=1;" vertex="1" parent="8qXv4J2yHKkorjMLx8Wc-5">
          <mxGeometry y="30" width="140" height="30" as="geometry" />
        </mxCell>
        <mxCell id="8qXv4J2yHKkorjMLx8Wc-9" style="edgeStyle=orthogonalEdgeStyle;rounded=0;orthogonalLoop=1;jettySize=auto;html=1;entryX=1;entryY=0.1;entryDx=0;entryDy=0;entryPerimeter=0;" edge="1" parent="1" source="8qXv4J2yHKkorjMLx8Wc-2" target="8qXv4J2yHKkorjMLx8Wc-6">
          <mxGeometry relative="1" as="geometry" />
        </mxCell>
        <mxCell id="8qXv4J2yHKkorjMLx8Wc-10" value="TAF" style="swimlane;fontStyle=0;childLayout=stackLayout;horizontal=1;startSize=30;horizontalStack=0;resizeParent=1;resizeParentMax=0;resizeLast=0;collapsible=1;marginBottom=0;whiteSpace=wrap;html=1;" vertex="1" parent="1">
          <mxGeometry x="800" y="20" width="140" height="160" as="geometry" />
        </mxCell>
        <mxCell id="8qXv4J2yHKkorjMLx8Wc-11" value="id : int&lt;br&gt;nom : string&lt;br&gt;description : string&lt;br&gt;UEs : UE&lt;br&gt;etudiants : Etudiant&lt;br&gt;responsable : Enseignant&lt;br&gt;domaine : domaine" style="text;strokeColor=none;fillColor=none;align=left;verticalAlign=middle;spacingLeft=4;spacingRight=4;overflow=hidden;points=[[0,0.5],[1,0.5]];portConstraint=eastwest;rotatable=0;whiteSpace=wrap;html=1;" vertex="1" parent="8qXv4J2yHKkorjMLx8Wc-10">
          <mxGeometry y="30" width="140" height="130" as="geometry" />
        </mxCell>
        <mxCell id="8qXv4J2yHKkorjMLx8Wc-15" value="lien_etudiant_taf" style="swimlane;fontStyle=0;childLayout=stackLayout;horizontal=1;startSize=30;horizontalStack=0;resizeParent=1;resizeParentMax=0;resizeLast=0;collapsible=1;marginBottom=0;whiteSpace=wrap;html=1;" vertex="1" parent="1">
          <mxGeometry x="510" y="5" width="140" height="60" as="geometry" />
        </mxCell>
        <mxCell id="8qXv4J2yHKkorjMLx8Wc-16" value="id_etudiant : int&lt;br&gt;id_taf : int" style="text;strokeColor=none;fillColor=none;align=left;verticalAlign=middle;spacingLeft=4;spacingRight=4;overflow=hidden;points=[[0,0.5],[1,0.5]];portConstraint=eastwest;rotatable=0;whiteSpace=wrap;html=1;" vertex="1" parent="8qXv4J2yHKkorjMLx8Wc-15">
          <mxGeometry y="30" width="140" height="30" as="geometry" />
        </mxCell>
        <mxCell id="8qXv4J2yHKkorjMLx8Wc-20" style="edgeStyle=orthogonalEdgeStyle;rounded=0;orthogonalLoop=1;jettySize=auto;html=1;entryX=0.643;entryY=0.967;entryDx=0;entryDy=0;entryPerimeter=0;" edge="1" parent="1" source="8qXv4J2yHKkorjMLx8Wc-2" target="8qXv4J2yHKkorjMLx8Wc-16">
          <mxGeometry relative="1" as="geometry">
            <mxPoint x="594" y="95" as="targetPoint" />
          </mxGeometry>
        </mxCell>
        <mxCell id="8qXv4J2yHKkorjMLx8Wc-21" style="edgeStyle=orthogonalEdgeStyle;rounded=0;orthogonalLoop=1;jettySize=auto;html=1;entryX=1;entryY=0.5;entryDx=0;entryDy=0;" edge="1" parent="1" target="8qXv4J2yHKkorjMLx8Wc-15">
          <mxGeometry relative="1" as="geometry">
            <mxPoint x="800" y="95" as="sourcePoint" />
            <mxPoint x="650" y="80" as="targetPoint" />
          </mxGeometry>
        </mxCell>
        <mxCell id="8qXv4J2yHKkorjMLx8Wc-22" value="Stage" style="swimlane;fontStyle=0;childLayout=stackLayout;horizontal=1;startSize=30;horizontalStack=0;resizeParent=1;resizeParentMax=0;resizeLast=0;collapsible=1;marginBottom=0;whiteSpace=wrap;html=1;" vertex="1" parent="1">
          <mxGeometry x="650" y="260" width="140" height="210" as="geometry" />
        </mxCell>
        <mxCell id="8qXv4J2yHKkorjMLx8Wc-23" value="id : int&lt;br&gt;entreprise : entreprise&lt;br&gt;" style="text;strokeColor=none;fillColor=none;align=left;verticalAlign=middle;spacingLeft=4;spacingRight=4;overflow=hidden;points=[[0,0.5],[1,0.5]];portConstraint=eastwest;rotatable=0;whiteSpace=wrap;html=1;" vertex="1" parent="8qXv4J2yHKkorjMLx8Wc-22">
          <mxGeometry y="30" width="140" height="180" as="geometry" />
        </mxCell>
        <mxCell id="8qXv4J2yHKkorjMLx8Wc-26" value="lien_etudiant_stage" style="swimlane;fontStyle=0;childLayout=stackLayout;horizontal=1;startSize=30;horizontalStack=0;resizeParent=1;resizeParentMax=0;resizeLast=0;collapsible=1;marginBottom=0;whiteSpace=wrap;html=1;" vertex="1" parent="1">
          <mxGeometry x="460" y="210" width="140" height="120" as="geometry" />
        </mxCell>
        <mxCell id="8qXv4J2yHKkorjMLx8Wc-27" value="Item 1" style="text;strokeColor=none;fillColor=none;align=left;verticalAlign=middle;spacingLeft=4;spacingRight=4;overflow=hidden;points=[[0,0.5],[1,0.5]];portConstraint=eastwest;rotatable=0;whiteSpace=wrap;html=1;" vertex="1" parent="8qXv4J2yHKkorjMLx8Wc-26">
          <mxGeometry y="30" width="140" height="30" as="geometry" />
        </mxCell>
        <mxCell id="8qXv4J2yHKkorjMLx8Wc-28" value="Item 2" style="text;strokeColor=none;fillColor=none;align=left;verticalAlign=middle;spacingLeft=4;spacingRight=4;overflow=hidden;points=[[0,0.5],[1,0.5]];portConstraint=eastwest;rotatable=0;whiteSpace=wrap;html=1;" vertex="1" parent="8qXv4J2yHKkorjMLx8Wc-26">
          <mxGeometry y="60" width="140" height="30" as="geometry" />
        </mxCell>
        <mxCell id="8qXv4J2yHKkorjMLx8Wc-29" value="Item 3" style="text;strokeColor=none;fillColor=none;align=left;verticalAlign=middle;spacingLeft=4;spacingRight=4;overflow=hidden;points=[[0,0.5],[1,0.5]];portConstraint=eastwest;rotatable=0;whiteSpace=wrap;html=1;" vertex="1" parent="8qXv4J2yHKkorjMLx8Wc-26">
          <mxGeometry y="90" width="140" height="30" as="geometry" />
        </mxCell>
        <mxCell id="8qXv4J2yHKkorjMLx8Wc-30" style="edgeStyle=orthogonalEdgeStyle;rounded=0;orthogonalLoop=1;jettySize=auto;html=1;" edge="1" parent="1" source="8qXv4J2yHKkorjMLx8Wc-2" target="8qXv4J2yHKkorjMLx8Wc-26">
          <mxGeometry relative="1" as="geometry" />
        </mxCell>
        <mxCell id="8qXv4J2yHKkorjMLx8Wc-31" style="edgeStyle=orthogonalEdgeStyle;rounded=0;orthogonalLoop=1;jettySize=auto;html=1;" edge="1" parent="1" source="8qXv4J2yHKkorjMLx8Wc-23" target="8qXv4J2yHKkorjMLx8Wc-26">
          <mxGeometry relative="1" as="geometry" />
        </mxCell>
      </root>
    </mxGraphModel>
  </diagram>
</mxfile>
